<?xml version="1.0" encoding="UTF-8"?>
<svg width="196" height="224" enable-background="new 0 0 355 379" version="1.1" viewBox="0 0 196 224" xml:space="preserve" xmlns="http://www.w3.org/2000/svg"><defs><marker id="a" overflow="visible" markerHeight="5.5999999" markerWidth="7.6999998" orient="auto-start-reverse" preserveAspectRatio="xMidYMid" viewBox="0 0 7.7 5.6"><path id="b" transform="scale(.7)" d="m-2-4 11 4-11 4c2-2.33 2-5.66 0-8z" fill="context-stroke" fill-rule="evenodd"/></marker></defs><g transform="matrix(.60575 0 0 .60575 -19.23 -6.0862)" stroke-width="3.3017"><ellipse cx="175" cy="60" rx="135" ry="45" fill="none" stroke="#000"/><text x="220" y="190" fill="none" stroke="#000000" xml:space="preserve"><tspan x="220" y="190"/></text><g stroke="#000"><path d="m40 330h270" stroke-linecap="round" stroke-opacity=".25229"/><path d="m175 375v-90" stroke-linecap="round" stroke-opacity=".25145"/><ellipse cx="175" cy="330" rx="135" ry="45" fill="none"/><g stroke-linecap="round"><path d="m175 330 107.76 10.358" fill="none" marker-end="url(#a)"/><path d="m40 60v270"/><path d="m310 60v270"/></g></g></g><g transform="translate(117.89 179.71)"><g transform="matrix(1.3333 0 0 1.3333 -1.2917 -.014166)" clip-path="url(#clipPath366)">
    <g>
      <g transform="translate(0,14.12)">
        <path d="m3.5996-16.887c0.1875-0.76562 0.28125-0.8125 1.0781-0.8125h1.4844c1.7812 0 3.1094 0.54688 3.1094 2.1562 0 1.0469-0.54688 4.0938-4.6875 4.0938h-2.3438zm2.875 5.6875c2.5625-0.5625 4.5625-2.2188 4.5625-4 0-1.6094-1.625-3.0938-4.5-3.0938h-5.5938c-0.40625 0-0.59375 0-0.59375 0.39062 0 0.20312 0.14062 0.20312 0.53125 0.20312 1.2344 0 1.2344 0.17188 1.2344 0.40625 0 0.03125 0 0.15625-0.078125 0.46875l-2.7813 11.109c-0.1875 0.71875-0.23438 0.9375-1.6562 0.9375-0.48438 0-0.625 0-0.625 0.39062 0 0.20312 0.23438 0.20312 0.29688 0.20312 0.35938 0 0.79688-0.046875 1.1875-0.046875h2.4375c0.375 0 0.8125 0.046875 1.1875 0.046875 0.15625 0 0.39062 0 0.39062-0.39062 0-0.20312-0.1875-0.20312-0.5-0.20312-1.2656 0-1.2656-0.17188-1.2656-0.375 0-0.015625 0-0.17188 0.046875-0.32812l1.3906-5.5625h2.4688c1.9688 0 2.3438 1.2344 2.3438 1.9219 0 0.3125-0.21875 1.1094-0.35938 1.6562-0.21875 0.95312-0.28125 1.1719-0.28125 1.5625 0 1.4688 1.1875 2.1562 2.5781 2.1562 1.6719 0 2.3906-2.0469 2.3906-2.3438 0-0.14062-0.09375-0.20312-0.21875-0.20312-0.17188 0-0.20312 0.125-0.25 0.29688-0.5 1.4688-1.3437 1.8281-1.8594 1.8281s-0.84375-0.21875-0.84375-1.1562c0-0.48438 0.25-2.375 0.26562-2.4688 0.09375-0.76562 0.09375-0.85938 0.09375-1.0156 0-1.5156-1.2188-2.1562-2-2.3906z"/>
      </g>
    </g>
  </g>
</g><g transform="translate(172.79 109.71)"><g transform="matrix(1.3333 0 0 1.3333 -1.2708 -.012834)" clip-path="url(#clipPath3939)">
    <g>
      <g transform="translate(0,14.119)">
        <path d="m15.453-12.594c0.1875-0.70312 0.21875-0.92188 1.6875-0.92188 0.375 0 0.57812 0 0.57812-0.35938 0-0.23438-0.1875-0.23438-0.3125-0.23438-0.35938 0-0.79688 0.04687-1.1875 0.04687h-2.4375c-0.39062 0-0.82812-0.04687-1.2188-0.04687-0.14062 0-0.39062 0-0.39062 0.39062 0 0.20312 0.14062 0.20312 0.53125 0.20312 1.2344 0 1.2344 0.17188 1.2344 0.40625 0 0.03125 0 0.15625-0.07813 0.46875l-1.2656 5h-6.2344l1.2344-4.9531c0.1875-0.70312 0.23438-0.92188 1.7031-0.92188 0.375 0 0.57812 0 0.57812-0.35938 0-0.23438-0.1875-0.23438-0.3125-0.23438-0.375 0-0.79688 0.04687-1.2031 0.04687h-2.4375c-0.39062 0-0.8125-0.04687-1.2188-0.04687-0.14062 0-0.39062 0-0.39062 0.39062 0 0.20312 0.15625 0.20312 0.54688 0.20312 1.2344 0 1.2344 0.17188 1.2344 0.40625 0 0.03125 0 0.15625-0.078125 0.46875l-2.7969 11.109c-0.1875 0.71875-0.21875 0.9375-1.6562 0.9375-0.46875 0-0.60938 0-0.60938 0.39062 0 0.20312 0.21875 0.20312 0.28125 0.20312 0.375 0 0.8125-0.046875 1.2031-0.046875h2.4375c0.39062 0 0.82812 0.046875 1.2188 0.046875 0.17188 0 0.39062 0 0.39062-0.39062 0-0.20312-0.1875-0.20312-0.5-0.20312-1.25 0-1.25-0.17188-1.25-0.375 0-0.015625 0-0.17188 0.03125-0.32812l1.4375-5.75h6.25c-0.34375 1.3594-1.4062 5.6875-1.4375 5.8125-0.23438 0.60938-0.5625 0.60938-1.7812 0.64062-0.25 0-0.4375 0-0.4375 0.39062 0 0.20312 0.23438 0.20312 0.29688 0.20312 0.35938 0 0.79688-0.046875 1.1875-0.046875h2.4375c0.39062 0 0.82812 0.046875 1.2188 0.046875 0.17188 0 0.39062 0 0.39062-0.39062 0-0.20312-0.17188-0.20312-0.48438-0.20312-1.2656 0-1.2656-0.17188-1.2656-0.375 0-0.015625 0-0.17188 0.04687-0.32812z"/>
      </g>
    </g>
  </g>
</g></svg>
